<mxfile host="app.diagrams.net" modified="2022-04-26T08:34:39.573Z" agent="5.0 (Windows NT 10.0; Win64; x64) AppleWebKit/537.36 (KHTML, like Gecko) Chrome/100.0.4896.127 Safari/537.36 Edg/100.0.1185.50" etag="-WKiYYGT64K3mu3tpboc" version="17.4.6" type="github">
  <diagram id="39_cZQo9wDpmoogNDu_g" name="Page-1">
    <mxGraphModel dx="1038" dy="579" grid="1" gridSize="10" guides="1" tooltips="1" connect="1" arrows="1" fold="1" page="1" pageScale="1" pageWidth="850" pageHeight="1100" math="0" shadow="0">
      <root>
        <mxCell id="0" />
        <mxCell id="1" parent="0" />
        <mxCell id="6WLZzAolNGOIwFSMATRg-3" value="" style="edgeStyle=orthogonalEdgeStyle;rounded=0;orthogonalLoop=1;jettySize=auto;html=1;" edge="1" parent="1" source="6WLZzAolNGOIwFSMATRg-1" target="6WLZzAolNGOIwFSMATRg-2">
          <mxGeometry relative="1" as="geometry" />
        </mxCell>
        <mxCell id="6WLZzAolNGOIwFSMATRg-1" value="start" style="rounded=1;whiteSpace=wrap;html=1;" vertex="1" parent="1">
          <mxGeometry x="330" y="20" width="100" height="40" as="geometry" />
        </mxCell>
        <mxCell id="6WLZzAolNGOIwFSMATRg-5" value="" style="edgeStyle=orthogonalEdgeStyle;rounded=0;orthogonalLoop=1;jettySize=auto;html=1;" edge="1" parent="1" source="6WLZzAolNGOIwFSMATRg-2" target="6WLZzAolNGOIwFSMATRg-4">
          <mxGeometry relative="1" as="geometry" />
        </mxCell>
        <mxCell id="6WLZzAolNGOIwFSMATRg-36" value="" style="edgeStyle=orthogonalEdgeStyle;rounded=0;orthogonalLoop=1;jettySize=auto;html=1;" edge="1" parent="1">
          <mxGeometry relative="1" as="geometry">
            <mxPoint x="170" y="120" as="sourcePoint" />
            <mxPoint x="170" y="350" as="targetPoint" />
          </mxGeometry>
        </mxCell>
        <mxCell id="6WLZzAolNGOIwFSMATRg-54" value="exception&amp;nbsp;" style="edgeStyle=orthogonalEdgeStyle;rounded=0;orthogonalLoop=1;jettySize=auto;html=1;" edge="1" parent="1" source="6WLZzAolNGOIwFSMATRg-2" target="6WLZzAolNGOIwFSMATRg-53">
          <mxGeometry relative="1" as="geometry" />
        </mxCell>
        <mxCell id="6WLZzAolNGOIwFSMATRg-2" value="Try" style="whiteSpace=wrap;html=1;rounded=1;" vertex="1" parent="1">
          <mxGeometry x="20" y="90" width="120" height="60" as="geometry" />
        </mxCell>
        <mxCell id="6WLZzAolNGOIwFSMATRg-7" value="" style="edgeStyle=orthogonalEdgeStyle;rounded=0;orthogonalLoop=1;jettySize=auto;html=1;" edge="1" parent="1" source="6WLZzAolNGOIwFSMATRg-4" target="6WLZzAolNGOIwFSMATRg-6">
          <mxGeometry relative="1" as="geometry" />
        </mxCell>
        <mxCell id="6WLZzAolNGOIwFSMATRg-16" value="" style="edgeStyle=orthogonalEdgeStyle;rounded=0;orthogonalLoop=1;jettySize=auto;html=1;" edge="1" parent="1" source="6WLZzAolNGOIwFSMATRg-4" target="6WLZzAolNGOIwFSMATRg-14">
          <mxGeometry relative="1" as="geometry" />
        </mxCell>
        <mxCell id="6WLZzAolNGOIwFSMATRg-22" value="" style="edgeStyle=orthogonalEdgeStyle;rounded=0;orthogonalLoop=1;jettySize=auto;html=1;" edge="1" parent="1" source="6WLZzAolNGOIwFSMATRg-4" target="6WLZzAolNGOIwFSMATRg-21">
          <mxGeometry relative="1" as="geometry" />
        </mxCell>
        <mxCell id="6WLZzAolNGOIwFSMATRg-4" value="create add agent instance and assign common property" style="whiteSpace=wrap;html=1;rounded=1;" vertex="1" parent="1">
          <mxGeometry x="210" y="90" width="120" height="60" as="geometry" />
        </mxCell>
        <mxCell id="6WLZzAolNGOIwFSMATRg-9" value="" style="edgeStyle=orthogonalEdgeStyle;rounded=0;orthogonalLoop=1;jettySize=auto;html=1;" edge="1" parent="1" source="6WLZzAolNGOIwFSMATRg-6" target="6WLZzAolNGOIwFSMATRg-8">
          <mxGeometry relative="1" as="geometry" />
        </mxCell>
        <mxCell id="6WLZzAolNGOIwFSMATRg-6" value="IF agent is npc,card,vehicle,props" style="rhombus;whiteSpace=wrap;html=1;" vertex="1" parent="1">
          <mxGeometry x="230" y="170" width="80" height="80" as="geometry" />
        </mxCell>
        <mxCell id="6WLZzAolNGOIwFSMATRg-8" value="set scale factor" style="rounded=1;whiteSpace=wrap;html=1;" vertex="1" parent="1">
          <mxGeometry x="210" y="280" width="120" height="60" as="geometry" />
        </mxCell>
        <mxCell id="6WLZzAolNGOIwFSMATRg-18" value="" style="edgeStyle=orthogonalEdgeStyle;rounded=0;orthogonalLoop=1;jettySize=auto;html=1;" edge="1" parent="1" source="6WLZzAolNGOIwFSMATRg-14" target="6WLZzAolNGOIwFSMATRg-17">
          <mxGeometry relative="1" as="geometry" />
        </mxCell>
        <mxCell id="6WLZzAolNGOIwFSMATRg-14" value="IF agent is npc" style="rhombus;whiteSpace=wrap;html=1;" vertex="1" parent="1">
          <mxGeometry x="360" y="80" width="80" height="80" as="geometry" />
        </mxCell>
        <mxCell id="6WLZzAolNGOIwFSMATRg-17" value="set the player and opp player" style="rounded=1;whiteSpace=wrap;html=1;" vertex="1" parent="1">
          <mxGeometry x="340" y="190" width="120" height="60" as="geometry" />
        </mxCell>
        <mxCell id="6WLZzAolNGOIwFSMATRg-24" value="" style="edgeStyle=orthogonalEdgeStyle;rounded=0;orthogonalLoop=1;jettySize=auto;html=1;" edge="1" parent="1" source="6WLZzAolNGOIwFSMATRg-21" target="6WLZzAolNGOIwFSMATRg-23">
          <mxGeometry relative="1" as="geometry" />
        </mxCell>
        <mxCell id="6WLZzAolNGOIwFSMATRg-28" value="" style="edgeStyle=orthogonalEdgeStyle;rounded=0;orthogonalLoop=1;jettySize=auto;html=1;" edge="1" parent="1" target="6WLZzAolNGOIwFSMATRg-27">
          <mxGeometry relative="1" as="geometry">
            <mxPoint x="520" y="170" as="sourcePoint" />
          </mxGeometry>
        </mxCell>
        <mxCell id="6WLZzAolNGOIwFSMATRg-30" value="" style="edgeStyle=orthogonalEdgeStyle;rounded=0;orthogonalLoop=1;jettySize=auto;html=1;" edge="1" parent="1" source="6WLZzAolNGOIwFSMATRg-21" target="6WLZzAolNGOIwFSMATRg-29">
          <mxGeometry relative="1" as="geometry" />
        </mxCell>
        <mxCell id="6WLZzAolNGOIwFSMATRg-21" value="IF agent is vehicle" style="rhombus;whiteSpace=wrap;html=1;rounded=1;" vertex="1" parent="1">
          <mxGeometry x="480" y="80" width="80" height="80" as="geometry" />
        </mxCell>
        <mxCell id="6WLZzAolNGOIwFSMATRg-26" value="" style="edgeStyle=orthogonalEdgeStyle;rounded=0;orthogonalLoop=1;jettySize=auto;html=1;" edge="1" parent="1" source="6WLZzAolNGOIwFSMATRg-23" target="6WLZzAolNGOIwFSMATRg-25">
          <mxGeometry relative="1" as="geometry" />
        </mxCell>
        <mxCell id="6WLZzAolNGOIwFSMATRg-23" value="IF player" style="rhombus;whiteSpace=wrap;html=1;rounded=1;" vertex="1" parent="1">
          <mxGeometry x="480" y="190" width="80" height="80" as="geometry" />
        </mxCell>
        <mxCell id="6WLZzAolNGOIwFSMATRg-25" value="set the player" style="whiteSpace=wrap;html=1;rounded=1;" vertex="1" parent="1">
          <mxGeometry x="460" y="300" width="120" height="60" as="geometry" />
        </mxCell>
        <mxCell id="6WLZzAolNGOIwFSMATRg-27" value="set the arrived agent info" style="whiteSpace=wrap;html=1;rounded=1;" vertex="1" parent="1">
          <mxGeometry x="570" y="200" width="120" height="60" as="geometry" />
        </mxCell>
        <mxCell id="6WLZzAolNGOIwFSMATRg-32" value="" style="edgeStyle=orthogonalEdgeStyle;rounded=0;orthogonalLoop=1;jettySize=auto;html=1;" edge="1" parent="1" source="6WLZzAolNGOIwFSMATRg-29" target="6WLZzAolNGOIwFSMATRg-31">
          <mxGeometry relative="1" as="geometry" />
        </mxCell>
        <mxCell id="6WLZzAolNGOIwFSMATRg-29" value="IF agent is card" style="rhombus;whiteSpace=wrap;html=1;rounded=1;" vertex="1" parent="1">
          <mxGeometry x="690" y="80" width="80" height="80" as="geometry" />
        </mxCell>
        <mxCell id="6WLZzAolNGOIwFSMATRg-34" value="" style="edgeStyle=orthogonalEdgeStyle;rounded=0;orthogonalLoop=1;jettySize=auto;html=1;" edge="1" parent="1" source="6WLZzAolNGOIwFSMATRg-31" target="6WLZzAolNGOIwFSMATRg-33">
          <mxGeometry relative="1" as="geometry" />
        </mxCell>
        <mxCell id="6WLZzAolNGOIwFSMATRg-31" value="set the sight,attack range and player" style="whiteSpace=wrap;html=1;rounded=1;" vertex="1" parent="1">
          <mxGeometry x="700" y="200" width="120" height="60" as="geometry" />
        </mxCell>
        <mxCell id="6WLZzAolNGOIwFSMATRg-33" value="set arrived agent info" style="whiteSpace=wrap;html=1;rounded=1;" vertex="1" parent="1">
          <mxGeometry x="700" y="290" width="120" height="60" as="geometry" />
        </mxCell>
        <mxCell id="6WLZzAolNGOIwFSMATRg-39" value="" style="edgeStyle=orthogonalEdgeStyle;rounded=0;orthogonalLoop=1;jettySize=auto;html=1;" edge="1" parent="1" source="6WLZzAolNGOIwFSMATRg-37" target="6WLZzAolNGOIwFSMATRg-38">
          <mxGeometry relative="1" as="geometry" />
        </mxCell>
        <mxCell id="6WLZzAolNGOIwFSMATRg-42" value="" style="edgeStyle=orthogonalEdgeStyle;rounded=0;orthogonalLoop=1;jettySize=auto;html=1;" edge="1" parent="1" source="6WLZzAolNGOIwFSMATRg-37" target="6WLZzAolNGOIwFSMATRg-41">
          <mxGeometry relative="1" as="geometry" />
        </mxCell>
        <mxCell id="6WLZzAolNGOIwFSMATRg-37" value="IF agent truck&amp;nbsp; or tower" style="rhombus;whiteSpace=wrap;html=1;" vertex="1" parent="1">
          <mxGeometry x="130" y="350" width="80" height="80" as="geometry" />
        </mxCell>
        <mxCell id="6WLZzAolNGOIwFSMATRg-38" value="set the player and set arrived agent info" style="rounded=1;whiteSpace=wrap;html=1;" vertex="1" parent="1">
          <mxGeometry x="110" y="470" width="120" height="60" as="geometry" />
        </mxCell>
        <mxCell id="6WLZzAolNGOIwFSMATRg-44" value="" style="edgeStyle=orthogonalEdgeStyle;rounded=0;orthogonalLoop=1;jettySize=auto;html=1;" edge="1" parent="1" source="6WLZzAolNGOIwFSMATRg-41" target="6WLZzAolNGOIwFSMATRg-43">
          <mxGeometry relative="1" as="geometry" />
        </mxCell>
        <mxCell id="6WLZzAolNGOIwFSMATRg-46" value="" style="edgeStyle=orthogonalEdgeStyle;rounded=0;orthogonalLoop=1;jettySize=auto;html=1;" edge="1" parent="1" source="6WLZzAolNGOIwFSMATRg-41" target="6WLZzAolNGOIwFSMATRg-45">
          <mxGeometry relative="1" as="geometry" />
        </mxCell>
        <mxCell id="6WLZzAolNGOIwFSMATRg-41" value="IF agent people" style="rhombus;whiteSpace=wrap;html=1;" vertex="1" parent="1">
          <mxGeometry x="240" y="350" width="80" height="80" as="geometry" />
        </mxCell>
        <mxCell id="6WLZzAolNGOIwFSMATRg-43" value="set arrived agent info" style="rounded=1;whiteSpace=wrap;html=1;" vertex="1" parent="1">
          <mxGeometry x="240" y="470" width="120" height="60" as="geometry" />
        </mxCell>
        <mxCell id="6WLZzAolNGOIwFSMATRg-48" value="" style="edgeStyle=orthogonalEdgeStyle;rounded=0;orthogonalLoop=1;jettySize=auto;html=1;" edge="1" parent="1" source="6WLZzAolNGOIwFSMATRg-45" target="6WLZzAolNGOIwFSMATRg-47">
          <mxGeometry relative="1" as="geometry" />
        </mxCell>
        <mxCell id="6WLZzAolNGOIwFSMATRg-50" value="" style="edgeStyle=orthogonalEdgeStyle;rounded=0;orthogonalLoop=1;jettySize=auto;html=1;" edge="1" parent="1" source="6WLZzAolNGOIwFSMATRg-45" target="6WLZzAolNGOIwFSMATRg-49">
          <mxGeometry relative="1" as="geometry" />
        </mxCell>
        <mxCell id="6WLZzAolNGOIwFSMATRg-45" value="IF state undefined" style="rhombus;whiteSpace=wrap;html=1;" vertex="1" parent="1">
          <mxGeometry x="385" y="350" width="80" height="80" as="geometry" />
        </mxCell>
        <mxCell id="6WLZzAolNGOIwFSMATRg-47" value="create the add agent schema" style="rounded=1;whiteSpace=wrap;html=1;" vertex="1" parent="1">
          <mxGeometry x="365" y="470" width="120" height="60" as="geometry" />
        </mxCell>
        <mxCell id="6WLZzAolNGOIwFSMATRg-52" value="" style="edgeStyle=orthogonalEdgeStyle;rounded=0;orthogonalLoop=1;jettySize=auto;html=1;" edge="1" parent="1" source="6WLZzAolNGOIwFSMATRg-49" target="6WLZzAolNGOIwFSMATRg-51">
          <mxGeometry relative="1" as="geometry" />
        </mxCell>
        <mxCell id="6WLZzAolNGOIwFSMATRg-49" value="IF log data not undefined" style="rhombus;whiteSpace=wrap;html=1;" vertex="1" parent="1">
          <mxGeometry x="580" y="350" width="80" height="80" as="geometry" />
        </mxCell>
        <mxCell id="6WLZzAolNGOIwFSMATRg-56" value="" style="edgeStyle=orthogonalEdgeStyle;rounded=0;orthogonalLoop=1;jettySize=auto;html=1;" edge="1" parent="1" source="6WLZzAolNGOIwFSMATRg-51" target="6WLZzAolNGOIwFSMATRg-55">
          <mxGeometry relative="1" as="geometry" />
        </mxCell>
        <mxCell id="6WLZzAolNGOIwFSMATRg-51" value="store the agent arrival, statelog and replay log" style="rounded=1;whiteSpace=wrap;html=1;" vertex="1" parent="1">
          <mxGeometry x="560" y="470" width="120" height="60" as="geometry" />
        </mxCell>
        <mxCell id="6WLZzAolNGOIwFSMATRg-53" value="CATCH any error log" style="whiteSpace=wrap;html=1;rounded=1;" vertex="1" parent="1">
          <mxGeometry x="20" y="200" width="120" height="60" as="geometry" />
        </mxCell>
        <mxCell id="6WLZzAolNGOIwFSMATRg-55" value="end" style="ellipse;whiteSpace=wrap;html=1;rounded=1;" vertex="1" parent="1">
          <mxGeometry x="735" y="480" width="50" height="40" as="geometry" />
        </mxCell>
      </root>
    </mxGraphModel>
  </diagram>
</mxfile>
